<mxfile host="app.diagrams.net" modified="2023-11-02T04:10:44.844Z" agent="Mozilla/5.0 (Windows NT 10.0; Win64; x64) AppleWebKit/537.36 (KHTML, like Gecko) Chrome/118.0.0.0 Safari/537.36" etag="Jo3Gi0m_Skse6q4l6m1X" version="22.0.8" type="github">
  <diagram id="C5RBs43oDa-KdzZeNtuy" name="Page-1">
    <mxGraphModel dx="4487" dy="2182" grid="0" gridSize="10" guides="1" tooltips="1" connect="1" arrows="1" fold="1" page="1" pageScale="1" pageWidth="827" pageHeight="1169" math="0" shadow="0">
      <root>
        <mxCell id="WIyWlLk6GJQsqaUBKTNV-0" />
        <mxCell id="WIyWlLk6GJQsqaUBKTNV-1" parent="WIyWlLk6GJQsqaUBKTNV-0" />
        <mxCell id="ttPGr65DL2RyhWmqJROM-2" value="" style="edgeStyle=orthogonalEdgeStyle;rounded=0;orthogonalLoop=1;jettySize=auto;html=1;" edge="1" parent="WIyWlLk6GJQsqaUBKTNV-1" source="ttPGr65DL2RyhWmqJROM-0" target="ttPGr65DL2RyhWmqJROM-1">
          <mxGeometry relative="1" as="geometry" />
        </mxCell>
        <mxCell id="ttPGr65DL2RyhWmqJROM-0" value="IPV4 PXE BOOT Request" style="rounded=0;whiteSpace=wrap;html=1;fontStyle=1" vertex="1" parent="WIyWlLk6GJQsqaUBKTNV-1">
          <mxGeometry x="-657" width="120" height="60" as="geometry" />
        </mxCell>
        <mxCell id="ttPGr65DL2RyhWmqJROM-78" value="" style="edgeStyle=orthogonalEdgeStyle;rounded=0;orthogonalLoop=1;jettySize=auto;html=1;" edge="1" parent="WIyWlLk6GJQsqaUBKTNV-1" source="ttPGr65DL2RyhWmqJROM-1" target="ttPGr65DL2RyhWmqJROM-3">
          <mxGeometry relative="1" as="geometry" />
        </mxCell>
        <mxCell id="ttPGr65DL2RyhWmqJROM-1" value="Start Tiny PXE Server Tool located on branch PC as administrator privileges&amp;nbsp;" style="rounded=0;whiteSpace=wrap;html=1;fontStyle=1" vertex="1" parent="WIyWlLk6GJQsqaUBKTNV-1">
          <mxGeometry x="-472" y="-21" width="123" height="102" as="geometry" />
        </mxCell>
        <mxCell id="ttPGr65DL2RyhWmqJROM-79" value="" style="edgeStyle=orthogonalEdgeStyle;rounded=0;orthogonalLoop=1;jettySize=auto;html=1;" edge="1" parent="WIyWlLk6GJQsqaUBKTNV-1" source="ttPGr65DL2RyhWmqJROM-3" target="ttPGr65DL2RyhWmqJROM-77">
          <mxGeometry relative="1" as="geometry" />
        </mxCell>
        <mxCell id="ttPGr65DL2RyhWmqJROM-3" value="Computer Take DHCP address from Tiny PXE Server Tool" style="whiteSpace=wrap;html=1;rounded=0;fontStyle=1" vertex="1" parent="WIyWlLk6GJQsqaUBKTNV-1">
          <mxGeometry x="-284" width="120" height="60" as="geometry" />
        </mxCell>
        <mxCell id="ttPGr65DL2RyhWmqJROM-8" value="" style="edgeStyle=orthogonalEdgeStyle;rounded=0;orthogonalLoop=1;jettySize=auto;html=1;" edge="1" parent="WIyWlLk6GJQsqaUBKTNV-1" source="ttPGr65DL2RyhWmqJROM-5" target="ttPGr65DL2RyhWmqJROM-7">
          <mxGeometry relative="1" as="geometry" />
        </mxCell>
        <mxCell id="ttPGr65DL2RyhWmqJROM-5" value="User will open DaRT Tool&amp;nbsp;" style="whiteSpace=wrap;html=1;rounded=0;fontStyle=1" vertex="1" parent="WIyWlLk6GJQsqaUBKTNV-1">
          <mxGeometry x="-105" y="232" width="120" height="60" as="geometry" />
        </mxCell>
        <mxCell id="ttPGr65DL2RyhWmqJROM-44" value="" style="edgeStyle=orthogonalEdgeStyle;rounded=0;orthogonalLoop=1;jettySize=auto;html=1;" edge="1" parent="WIyWlLk6GJQsqaUBKTNV-1" source="ttPGr65DL2RyhWmqJROM-7" target="ttPGr65DL2RyhWmqJROM-11">
          <mxGeometry relative="1" as="geometry" />
        </mxCell>
        <mxCell id="ttPGr65DL2RyhWmqJROM-7" value="Remote connection by DaRT tools from Site" style="whiteSpace=wrap;html=1;rounded=0;fontStyle=1" vertex="1" parent="WIyWlLk6GJQsqaUBKTNV-1">
          <mxGeometry x="-283" y="232" width="124" height="61" as="geometry" />
        </mxCell>
        <mxCell id="ttPGr65DL2RyhWmqJROM-35" value="" style="edgeStyle=orthogonalEdgeStyle;rounded=0;orthogonalLoop=1;jettySize=auto;html=1;" edge="1" parent="WIyWlLk6GJQsqaUBKTNV-1" target="ttPGr65DL2RyhWmqJROM-0">
          <mxGeometry relative="1" as="geometry">
            <mxPoint x="-726" y="29.999999999999773" as="sourcePoint" />
          </mxGeometry>
        </mxCell>
        <mxCell id="ttPGr65DL2RyhWmqJROM-9" value="Computer that need to install OS&amp;nbsp;" style="whiteSpace=wrap;html=1;rounded=0;fontStyle=1" vertex="1" parent="WIyWlLk6GJQsqaUBKTNV-1">
          <mxGeometry x="-843" width="120" height="60" as="geometry" />
        </mxCell>
        <mxCell id="ttPGr65DL2RyhWmqJROM-90" value="" style="edgeStyle=orthogonalEdgeStyle;rounded=0;orthogonalLoop=1;jettySize=auto;html=1;" edge="1" parent="WIyWlLk6GJQsqaUBKTNV-1" source="ttPGr65DL2RyhWmqJROM-11" target="ttPGr65DL2RyhWmqJROM-82">
          <mxGeometry relative="1" as="geometry" />
        </mxCell>
        <mxCell id="ttPGr65DL2RyhWmqJROM-11" value="Back up user data from C to D driver&amp;nbsp;" style="whiteSpace=wrap;html=1;rounded=0;fontStyle=1" vertex="1" parent="WIyWlLk6GJQsqaUBKTNV-1">
          <mxGeometry x="-469" y="232" width="120" height="60" as="geometry" />
        </mxCell>
        <mxCell id="ttPGr65DL2RyhWmqJROM-94" value="" style="edgeStyle=orthogonalEdgeStyle;rounded=0;orthogonalLoop=1;jettySize=auto;html=1;" edge="1" parent="WIyWlLk6GJQsqaUBKTNV-1" source="ttPGr65DL2RyhWmqJROM-13" target="ttPGr65DL2RyhWmqJROM-15">
          <mxGeometry relative="1" as="geometry" />
        </mxCell>
        <mxCell id="ttPGr65DL2RyhWmqJROM-13" value="Applying Image to C driver" style="whiteSpace=wrap;html=1;rounded=0;fontStyle=1" vertex="1" parent="WIyWlLk6GJQsqaUBKTNV-1">
          <mxGeometry x="-468" y="365" width="120" height="60" as="geometry" />
        </mxCell>
        <mxCell id="ttPGr65DL2RyhWmqJROM-15" value="System Starts up" style="whiteSpace=wrap;html=1;rounded=0;fontStyle=1" vertex="1" parent="WIyWlLk6GJQsqaUBKTNV-1">
          <mxGeometry x="-283" y="365" width="120" height="60" as="geometry" />
        </mxCell>
        <mxCell id="ttPGr65DL2RyhWmqJROM-40" value="" style="edgeStyle=orthogonalEdgeStyle;rounded=0;orthogonalLoop=1;jettySize=auto;html=1;" edge="1" parent="WIyWlLk6GJQsqaUBKTNV-1" source="ttPGr65DL2RyhWmqJROM-17" target="ttPGr65DL2RyhWmqJROM-29">
          <mxGeometry relative="1" as="geometry" />
        </mxCell>
        <mxCell id="ttPGr65DL2RyhWmqJROM-17" value="User needs to configure static IP address&amp;nbsp;" style="whiteSpace=wrap;html=1;rounded=0;fontStyle=1" vertex="1" parent="WIyWlLk6GJQsqaUBKTNV-1">
          <mxGeometry x="-662" y="565" width="120" height="60" as="geometry" />
        </mxCell>
        <mxCell id="ttPGr65DL2RyhWmqJROM-32" value="" style="edgeStyle=orthogonalEdgeStyle;rounded=0;orthogonalLoop=1;jettySize=auto;html=1;" edge="1" parent="WIyWlLk6GJQsqaUBKTNV-1" source="ttPGr65DL2RyhWmqJROM-19" target="ttPGr65DL2RyhWmqJROM-17">
          <mxGeometry relative="1" as="geometry" />
        </mxCell>
        <mxCell id="ttPGr65DL2RyhWmqJROM-19" value="Register VNC key by user" style="whiteSpace=wrap;html=1;rounded=0;fontStyle=1" vertex="1" parent="WIyWlLk6GJQsqaUBKTNV-1">
          <mxGeometry x="-847" y="565" width="120" height="60" as="geometry" />
        </mxCell>
        <mxCell id="ttPGr65DL2RyhWmqJROM-93" value="" style="edgeStyle=orthogonalEdgeStyle;rounded=0;orthogonalLoop=1;jettySize=auto;html=1;" edge="1" parent="WIyWlLk6GJQsqaUBKTNV-1" source="ttPGr65DL2RyhWmqJROM-25" target="ttPGr65DL2RyhWmqJROM-13">
          <mxGeometry relative="1" as="geometry" />
        </mxCell>
        <mxCell id="ttPGr65DL2RyhWmqJROM-25" value="Download OS Image from branch host computer&amp;nbsp;" style="whiteSpace=wrap;html=1;rounded=0;fontStyle=1" vertex="1" parent="WIyWlLk6GJQsqaUBKTNV-1">
          <mxGeometry x="-653" y="365" width="120" height="60" as="geometry" />
        </mxCell>
        <mxCell id="ttPGr65DL2RyhWmqJROM-36" value="" style="edgeStyle=orthogonalEdgeStyle;rounded=0;orthogonalLoop=1;jettySize=auto;html=1;" edge="1" parent="WIyWlLk6GJQsqaUBKTNV-1" source="ttPGr65DL2RyhWmqJROM-29" target="ttPGr65DL2RyhWmqJROM-34">
          <mxGeometry relative="1" as="geometry" />
        </mxCell>
        <mxCell id="ttPGr65DL2RyhWmqJROM-29" value="Connect by VNC from site" style="whiteSpace=wrap;html=1;rounded=0;fontStyle=1;" vertex="1" parent="WIyWlLk6GJQsqaUBKTNV-1">
          <mxGeometry x="-477" y="565" width="120" height="60" as="geometry" />
        </mxCell>
        <mxCell id="ttPGr65DL2RyhWmqJROM-100" value="" style="edgeStyle=orthogonalEdgeStyle;rounded=0;orthogonalLoop=1;jettySize=auto;html=1;" edge="1" parent="WIyWlLk6GJQsqaUBKTNV-1" source="ttPGr65DL2RyhWmqJROM-34" target="ttPGr65DL2RyhWmqJROM-98">
          <mxGeometry relative="1" as="geometry" />
        </mxCell>
        <mxCell id="ttPGr65DL2RyhWmqJROM-34" value="Join Domain" style="whiteSpace=wrap;html=1;rounded=0;fontStyle=1;" vertex="1" parent="WIyWlLk6GJQsqaUBKTNV-1">
          <mxGeometry x="-287" y="565" width="120" height="60" as="geometry" />
        </mxCell>
        <mxCell id="ttPGr65DL2RyhWmqJROM-39" value="" style="edgeStyle=orthogonalEdgeStyle;rounded=0;orthogonalLoop=1;jettySize=auto;html=1;" edge="1" parent="WIyWlLk6GJQsqaUBKTNV-1" source="ttPGr65DL2RyhWmqJROM-37" target="ttPGr65DL2RyhWmqJROM-5">
          <mxGeometry relative="1" as="geometry" />
        </mxCell>
        <mxCell id="ttPGr65DL2RyhWmqJROM-37" value="WINPE OS Successfully running" style="whiteSpace=wrap;html=1;rounded=0;fontStyle=1" vertex="1" parent="WIyWlLk6GJQsqaUBKTNV-1">
          <mxGeometry x="-105" y="121" width="120" height="60" as="geometry" />
        </mxCell>
        <mxCell id="ttPGr65DL2RyhWmqJROM-45" value="" style="edgeStyle=orthogonalEdgeStyle;rounded=0;orthogonalLoop=1;jettySize=auto;html=1;" edge="1" parent="WIyWlLk6GJQsqaUBKTNV-1" source="ttPGr65DL2RyhWmqJROM-46" target="ttPGr65DL2RyhWmqJROM-48">
          <mxGeometry relative="1" as="geometry" />
        </mxCell>
        <mxCell id="ttPGr65DL2RyhWmqJROM-46" value="IPV4 PXE BOOT Request" style="rounded=0;whiteSpace=wrap;html=1;fontStyle=1" vertex="1" parent="WIyWlLk6GJQsqaUBKTNV-1">
          <mxGeometry x="425" width="120" height="60" as="geometry" />
        </mxCell>
        <mxCell id="ttPGr65DL2RyhWmqJROM-47" value="" style="edgeStyle=orthogonalEdgeStyle;rounded=0;orthogonalLoop=1;jettySize=auto;html=1;" edge="1" parent="WIyWlLk6GJQsqaUBKTNV-1" source="ttPGr65DL2RyhWmqJROM-48" target="ttPGr65DL2RyhWmqJROM-50">
          <mxGeometry relative="1" as="geometry" />
        </mxCell>
        <mxCell id="ttPGr65DL2RyhWmqJROM-48" value="Take IP address from DHCP server" style="rounded=0;whiteSpace=wrap;html=1;fontStyle=1" vertex="1" parent="WIyWlLk6GJQsqaUBKTNV-1">
          <mxGeometry x="610" width="120" height="60" as="geometry" />
        </mxCell>
        <mxCell id="ttPGr65DL2RyhWmqJROM-49" value="" style="edgeStyle=orthogonalEdgeStyle;rounded=0;orthogonalLoop=1;jettySize=auto;html=1;" edge="1" parent="WIyWlLk6GJQsqaUBKTNV-1" source="ttPGr65DL2RyhWmqJROM-50" target="ttPGr65DL2RyhWmqJROM-74">
          <mxGeometry relative="1" as="geometry" />
        </mxCell>
        <mxCell id="ttPGr65DL2RyhWmqJROM-50" value="Download WINPE mini OS by TFTP protocol" style="whiteSpace=wrap;html=1;rounded=0;fontStyle=1" vertex="1" parent="WIyWlLk6GJQsqaUBKTNV-1">
          <mxGeometry x="800" width="120" height="60" as="geometry" />
        </mxCell>
        <mxCell id="ttPGr65DL2RyhWmqJROM-51" value="" style="edgeStyle=orthogonalEdgeStyle;rounded=0;orthogonalLoop=1;jettySize=auto;html=1;" edge="1" parent="WIyWlLk6GJQsqaUBKTNV-1" source="ttPGr65DL2RyhWmqJROM-52" target="ttPGr65DL2RyhWmqJROM-54">
          <mxGeometry relative="1" as="geometry" />
        </mxCell>
        <mxCell id="ttPGr65DL2RyhWmqJROM-52" value="Appropriate OSD Task Sequence From System Center" style="whiteSpace=wrap;html=1;rounded=0;fontStyle=1" vertex="1" parent="WIyWlLk6GJQsqaUBKTNV-1">
          <mxGeometry x="993" y="121" width="120" height="60" as="geometry" />
        </mxCell>
        <mxCell id="ttPGr65DL2RyhWmqJROM-53" value="" style="edgeStyle=orthogonalEdgeStyle;rounded=0;orthogonalLoop=1;jettySize=auto;html=1;" edge="1" parent="WIyWlLk6GJQsqaUBKTNV-1" source="ttPGr65DL2RyhWmqJROM-54" target="ttPGr65DL2RyhWmqJROM-58">
          <mxGeometry relative="1" as="geometry" />
        </mxCell>
        <mxCell id="ttPGr65DL2RyhWmqJROM-54" value="User Data Back UP to D drive" style="whiteSpace=wrap;html=1;rounded=0;fontStyle=1" vertex="1" parent="WIyWlLk6GJQsqaUBKTNV-1">
          <mxGeometry x="991" y="240" width="124" height="61" as="geometry" />
        </mxCell>
        <mxCell id="ttPGr65DL2RyhWmqJROM-55" value="" style="edgeStyle=orthogonalEdgeStyle;rounded=0;orthogonalLoop=1;jettySize=auto;html=1;" edge="1" parent="WIyWlLk6GJQsqaUBKTNV-1" source="ttPGr65DL2RyhWmqJROM-56" target="ttPGr65DL2RyhWmqJROM-46">
          <mxGeometry relative="1" as="geometry" />
        </mxCell>
        <mxCell id="ttPGr65DL2RyhWmqJROM-56" value="Computer that need to install OS&amp;nbsp;" style="whiteSpace=wrap;html=1;rounded=0;fontStyle=1" vertex="1" parent="WIyWlLk6GJQsqaUBKTNV-1">
          <mxGeometry x="240" width="120" height="60" as="geometry" />
        </mxCell>
        <mxCell id="ttPGr65DL2RyhWmqJROM-57" value="" style="edgeStyle=orthogonalEdgeStyle;rounded=0;orthogonalLoop=1;jettySize=auto;html=1;" edge="1" parent="WIyWlLk6GJQsqaUBKTNV-1" source="ttPGr65DL2RyhWmqJROM-58" target="ttPGr65DL2RyhWmqJROM-69">
          <mxGeometry relative="1" as="geometry" />
        </mxCell>
        <mxCell id="ttPGr65DL2RyhWmqJROM-58" value="Download OS From NAS SERVER" style="whiteSpace=wrap;html=1;rounded=0;fontStyle=1" vertex="1" parent="WIyWlLk6GJQsqaUBKTNV-1">
          <mxGeometry x="800" y="241" width="120" height="60" as="geometry" />
        </mxCell>
        <mxCell id="ttPGr65DL2RyhWmqJROM-59" value="" style="edgeStyle=orthogonalEdgeStyle;rounded=0;orthogonalLoop=1;jettySize=auto;html=1;" edge="1" parent="WIyWlLk6GJQsqaUBKTNV-1" source="ttPGr65DL2RyhWmqJROM-60" target="ttPGr65DL2RyhWmqJROM-62">
          <mxGeometry relative="1" as="geometry" />
        </mxCell>
        <mxCell id="ttPGr65DL2RyhWmqJROM-60" value="Domain Joined with Previous Hostname" style="whiteSpace=wrap;html=1;rounded=0;fontStyle=1" vertex="1" parent="WIyWlLk6GJQsqaUBKTNV-1">
          <mxGeometry x="425" y="241" width="120" height="60" as="geometry" />
        </mxCell>
        <mxCell id="ttPGr65DL2RyhWmqJROM-61" value="" style="edgeStyle=orthogonalEdgeStyle;rounded=0;orthogonalLoop=1;jettySize=auto;html=1;" edge="1" parent="WIyWlLk6GJQsqaUBKTNV-1" source="ttPGr65DL2RyhWmqJROM-62" target="ttPGr65DL2RyhWmqJROM-66">
          <mxGeometry relative="1" as="geometry" />
        </mxCell>
        <mxCell id="ttPGr65DL2RyhWmqJROM-62" value="Install SCCM Client&lt;br&gt;&amp;nbsp;Software" style="whiteSpace=wrap;html=1;rounded=0;fontStyle=1" vertex="1" parent="WIyWlLk6GJQsqaUBKTNV-1">
          <mxGeometry x="240" y="241" width="120" height="60" as="geometry" />
        </mxCell>
        <mxCell id="ttPGr65DL2RyhWmqJROM-63" value="" style="edgeStyle=orthogonalEdgeStyle;rounded=0;orthogonalLoop=1;jettySize=auto;html=1;" edge="1" parent="WIyWlLk6GJQsqaUBKTNV-1" source="ttPGr65DL2RyhWmqJROM-64" target="ttPGr65DL2RyhWmqJROM-71">
          <mxGeometry relative="1" as="geometry" />
        </mxCell>
        <mxCell id="ttPGr65DL2RyhWmqJROM-64" value="Install Apps/ Updates &lt;br&gt;Belong to Device Collection" style="whiteSpace=wrap;html=1;rounded=0;fontStyle=1" vertex="1" parent="WIyWlLk6GJQsqaUBKTNV-1">
          <mxGeometry x="425" y="392" width="120" height="60" as="geometry" />
        </mxCell>
        <mxCell id="ttPGr65DL2RyhWmqJROM-65" value="" style="edgeStyle=orthogonalEdgeStyle;rounded=0;orthogonalLoop=1;jettySize=auto;html=1;" edge="1" parent="WIyWlLk6GJQsqaUBKTNV-1" source="ttPGr65DL2RyhWmqJROM-66" target="ttPGr65DL2RyhWmqJROM-64">
          <mxGeometry relative="1" as="geometry" />
        </mxCell>
        <mxCell id="ttPGr65DL2RyhWmqJROM-66" value="VNC license configuration automatically" style="whiteSpace=wrap;html=1;rounded=0;fontStyle=1" vertex="1" parent="WIyWlLk6GJQsqaUBKTNV-1">
          <mxGeometry x="240" y="392" width="120" height="60" as="geometry" />
        </mxCell>
        <mxCell id="ttPGr65DL2RyhWmqJROM-67" value="&lt;font style=&quot;font-size: 18px;&quot;&gt;In Progress Automation Task&lt;/font&gt;&lt;br&gt;&lt;br&gt;Change Network setting from DHCP to previous Static Address.&lt;br&gt;&lt;br&gt;&lt;br&gt;Configure all Network printer by Domain Printer Server." style="ellipse;whiteSpace=wrap;html=1;rounded=0;fontStyle=3;labelBackgroundColor=none;labelBorderColor=none;" vertex="1" parent="WIyWlLk6GJQsqaUBKTNV-1">
          <mxGeometry x="527" y="509" width="296" height="304" as="geometry" />
        </mxCell>
        <mxCell id="ttPGr65DL2RyhWmqJROM-68" value="" style="edgeStyle=orthogonalEdgeStyle;rounded=0;orthogonalLoop=1;jettySize=auto;html=1;" edge="1" parent="WIyWlLk6GJQsqaUBKTNV-1" source="ttPGr65DL2RyhWmqJROM-69" target="ttPGr65DL2RyhWmqJROM-60">
          <mxGeometry relative="1" as="geometry" />
        </mxCell>
        <mxCell id="ttPGr65DL2RyhWmqJROM-69" value="Apply Downloaded OS for C Drive" style="whiteSpace=wrap;html=1;rounded=0;fontStyle=1" vertex="1" parent="WIyWlLk6GJQsqaUBKTNV-1">
          <mxGeometry x="610" y="241" width="120" height="60" as="geometry" />
        </mxCell>
        <mxCell id="ttPGr65DL2RyhWmqJROM-70" value="" style="edgeStyle=orthogonalEdgeStyle;rounded=0;orthogonalLoop=1;jettySize=auto;html=1;" edge="1" parent="WIyWlLk6GJQsqaUBKTNV-1" source="ttPGr65DL2RyhWmqJROM-71" target="ttPGr65DL2RyhWmqJROM-72">
          <mxGeometry relative="1" as="geometry" />
        </mxCell>
        <mxCell id="ttPGr65DL2RyhWmqJROM-71" value="System Starts Up" style="whiteSpace=wrap;html=1;rounded=0;fontStyle=1;" vertex="1" parent="WIyWlLk6GJQsqaUBKTNV-1">
          <mxGeometry x="610" y="392" width="120" height="60" as="geometry" />
        </mxCell>
        <mxCell id="ttPGr65DL2RyhWmqJROM-72" value="Configure Static IP Address via VNC" style="whiteSpace=wrap;html=1;rounded=0;fontStyle=1;" vertex="1" parent="WIyWlLk6GJQsqaUBKTNV-1">
          <mxGeometry x="800" y="392" width="120" height="60" as="geometry" />
        </mxCell>
        <mxCell id="ttPGr65DL2RyhWmqJROM-73" value="" style="edgeStyle=orthogonalEdgeStyle;rounded=0;orthogonalLoop=1;jettySize=auto;html=1;" edge="1" parent="WIyWlLk6GJQsqaUBKTNV-1" source="ttPGr65DL2RyhWmqJROM-74" target="ttPGr65DL2RyhWmqJROM-52">
          <mxGeometry relative="1" as="geometry" />
        </mxCell>
        <mxCell id="ttPGr65DL2RyhWmqJROM-74" value="WINPE OS Successfully running" style="whiteSpace=wrap;html=1;rounded=0;fontStyle=1" vertex="1" parent="WIyWlLk6GJQsqaUBKTNV-1">
          <mxGeometry x="993" width="120" height="60" as="geometry" />
        </mxCell>
        <mxCell id="ttPGr65DL2RyhWmqJROM-80" value="" style="edgeStyle=orthogonalEdgeStyle;rounded=0;orthogonalLoop=1;jettySize=auto;html=1;" edge="1" parent="WIyWlLk6GJQsqaUBKTNV-1" source="ttPGr65DL2RyhWmqJROM-77" target="ttPGr65DL2RyhWmqJROM-37">
          <mxGeometry relative="1" as="geometry" />
        </mxCell>
        <mxCell id="ttPGr65DL2RyhWmqJROM-77" value="Download MDT WINPE mini OS by TFTP protocol from Branch Host Computer" style="whiteSpace=wrap;html=1;rounded=0;fontStyle=1" vertex="1" parent="WIyWlLk6GJQsqaUBKTNV-1">
          <mxGeometry x="-105" y="-13.5" width="120" height="87" as="geometry" />
        </mxCell>
        <mxCell id="ttPGr65DL2RyhWmqJROM-96" value="" style="edgeStyle=orthogonalEdgeStyle;rounded=0;orthogonalLoop=1;jettySize=auto;html=1;" edge="1" parent="WIyWlLk6GJQsqaUBKTNV-1" source="ttPGr65DL2RyhWmqJROM-81" target="ttPGr65DL2RyhWmqJROM-95">
          <mxGeometry relative="1" as="geometry" />
        </mxCell>
        <mxCell id="ttPGr65DL2RyhWmqJROM-81" value="Choose task sequence and configure required steps" style="whiteSpace=wrap;html=1;rounded=0;fontStyle=1" vertex="1" parent="WIyWlLk6GJQsqaUBKTNV-1">
          <mxGeometry x="-841" y="220.25" width="120" height="84.5" as="geometry" />
        </mxCell>
        <mxCell id="ttPGr65DL2RyhWmqJROM-91" value="" style="edgeStyle=orthogonalEdgeStyle;rounded=0;orthogonalLoop=1;jettySize=auto;html=1;" edge="1" parent="WIyWlLk6GJQsqaUBKTNV-1" source="ttPGr65DL2RyhWmqJROM-82" target="ttPGr65DL2RyhWmqJROM-81">
          <mxGeometry relative="1" as="geometry" />
        </mxCell>
        <mxCell id="ttPGr65DL2RyhWmqJROM-82" value="Open OS Installation task" style="whiteSpace=wrap;html=1;rounded=0;fontStyle=1" vertex="1" parent="WIyWlLk6GJQsqaUBKTNV-1">
          <mxGeometry x="-653" y="232" width="120" height="60" as="geometry" />
        </mxCell>
        <mxCell id="ttPGr65DL2RyhWmqJROM-86" value="Automatic progress" style="rounded=0;whiteSpace=wrap;html=1;" vertex="1" parent="WIyWlLk6GJQsqaUBKTNV-1">
          <mxGeometry x="-577" y="341" width="164" height="19" as="geometry" />
        </mxCell>
        <mxCell id="ttPGr65DL2RyhWmqJROM-87" value="After System Starts up" style="rounded=0;whiteSpace=wrap;html=1;" vertex="1" parent="WIyWlLk6GJQsqaUBKTNV-1">
          <mxGeometry x="-499.25" y="509" width="164" height="19" as="geometry" />
        </mxCell>
        <mxCell id="ttPGr65DL2RyhWmqJROM-97" value="" style="edgeStyle=orthogonalEdgeStyle;rounded=0;orthogonalLoop=1;jettySize=auto;html=1;" edge="1" parent="WIyWlLk6GJQsqaUBKTNV-1" source="ttPGr65DL2RyhWmqJROM-95" target="ttPGr65DL2RyhWmqJROM-25">
          <mxGeometry relative="1" as="geometry" />
        </mxCell>
        <mxCell id="ttPGr65DL2RyhWmqJROM-95" value="Start Installation Progress" style="whiteSpace=wrap;html=1;rounded=0;fontStyle=1" vertex="1" parent="WIyWlLk6GJQsqaUBKTNV-1">
          <mxGeometry x="-841" y="365" width="120" height="60" as="geometry" />
        </mxCell>
        <mxCell id="ttPGr65DL2RyhWmqJROM-101" value="" style="edgeStyle=orthogonalEdgeStyle;rounded=0;orthogonalLoop=1;jettySize=auto;html=1;" edge="1" parent="WIyWlLk6GJQsqaUBKTNV-1" source="ttPGr65DL2RyhWmqJROM-98" target="ttPGr65DL2RyhWmqJROM-99">
          <mxGeometry relative="1" as="geometry" />
        </mxCell>
        <mxCell id="ttPGr65DL2RyhWmqJROM-98" value="Install SCCM client&amp;nbsp;" style="whiteSpace=wrap;html=1;rounded=0;fontStyle=1;" vertex="1" parent="WIyWlLk6GJQsqaUBKTNV-1">
          <mxGeometry x="-109" y="565" width="120" height="60" as="geometry" />
        </mxCell>
        <mxCell id="ttPGr65DL2RyhWmqJROM-99" value="Install Apps/ Updates&lt;br style=&quot;border-color: var(--border-color);&quot;&gt;Belong to Device Collection" style="whiteSpace=wrap;html=1;rounded=0;fontStyle=1;" vertex="1" parent="WIyWlLk6GJQsqaUBKTNV-1">
          <mxGeometry x="-109" y="680" width="120" height="60" as="geometry" />
        </mxCell>
        <mxCell id="ttPGr65DL2RyhWmqJROM-102" value="Manually" style="rounded=0;whiteSpace=wrap;html=1;" vertex="1" parent="WIyWlLk6GJQsqaUBKTNV-1">
          <mxGeometry x="-452" y="206" width="87.5" height="19" as="geometry" />
        </mxCell>
        <mxCell id="ttPGr65DL2RyhWmqJROM-103" value="Manually" style="rounded=0;whiteSpace=wrap;html=1;" vertex="1" parent="WIyWlLk6GJQsqaUBKTNV-1">
          <mxGeometry x="-636" y="206" width="87.5" height="19" as="geometry" />
        </mxCell>
        <mxCell id="ttPGr65DL2RyhWmqJROM-104" value="Manually" style="rounded=0;whiteSpace=wrap;html=1;" vertex="1" parent="WIyWlLk6GJQsqaUBKTNV-1">
          <mxGeometry x="-824.75" y="196" width="87.5" height="19" as="geometry" />
        </mxCell>
        <mxCell id="ttPGr65DL2RyhWmqJROM-105" value="Manually" style="rounded=0;whiteSpace=wrap;html=1;" vertex="1" parent="WIyWlLk6GJQsqaUBKTNV-1">
          <mxGeometry x="-88.75" y="299" width="87.5" height="19" as="geometry" />
        </mxCell>
        <mxCell id="ttPGr65DL2RyhWmqJROM-106" value="Manually" style="rounded=0;whiteSpace=wrap;html=1;" vertex="1" parent="WIyWlLk6GJQsqaUBKTNV-1">
          <mxGeometry x="-451.75" y="-45" width="87.5" height="19" as="geometry" />
        </mxCell>
        <mxCell id="ttPGr65DL2RyhWmqJROM-107" value="Manually" style="rounded=0;whiteSpace=wrap;html=1;" vertex="1" parent="WIyWlLk6GJQsqaUBKTNV-1">
          <mxGeometry x="-262" y="206" width="87.5" height="19" as="geometry" />
        </mxCell>
        <mxCell id="ttPGr65DL2RyhWmqJROM-108" value="Manually" style="rounded=0;whiteSpace=wrap;html=1;" vertex="1" parent="WIyWlLk6GJQsqaUBKTNV-1">
          <mxGeometry x="-828.75" y="540" width="87.5" height="19" as="geometry" />
        </mxCell>
        <mxCell id="ttPGr65DL2RyhWmqJROM-110" value="Manually" style="rounded=0;whiteSpace=wrap;html=1;" vertex="1" parent="WIyWlLk6GJQsqaUBKTNV-1">
          <mxGeometry x="-645.75" y="540" width="87.5" height="19" as="geometry" />
        </mxCell>
        <mxCell id="ttPGr65DL2RyhWmqJROM-111" value="Manually" style="rounded=0;whiteSpace=wrap;html=1;" vertex="1" parent="WIyWlLk6GJQsqaUBKTNV-1">
          <mxGeometry x="-461" y="540" width="87.5" height="19" as="geometry" />
        </mxCell>
        <mxCell id="ttPGr65DL2RyhWmqJROM-112" value="Manually" style="rounded=0;whiteSpace=wrap;html=1;" vertex="1" parent="WIyWlLk6GJQsqaUBKTNV-1">
          <mxGeometry x="-266" y="540" width="87.5" height="19" as="geometry" />
        </mxCell>
        <mxCell id="ttPGr65DL2RyhWmqJROM-113" value="Manually" style="rounded=0;whiteSpace=wrap;html=1;" vertex="1" parent="WIyWlLk6GJQsqaUBKTNV-1">
          <mxGeometry x="-91" y="540" width="87.5" height="19" as="geometry" />
        </mxCell>
        <mxCell id="ttPGr65DL2RyhWmqJROM-114" value="&lt;b style=&quot;font-size: 14px;&quot;&gt;Required time 60+ min for Local Branches&lt;br style=&quot;font-size: 14px;&quot;&gt;&lt;br style=&quot;font-size: 14px;&quot;&gt;40-60 min for City Branches&lt;br style=&quot;font-size: 14px;&quot;&gt;&lt;/b&gt;" style="shape=hexagon;perimeter=hexagonPerimeter2;whiteSpace=wrap;html=1;fixedSize=1;fontSize=14;" vertex="1" parent="WIyWlLk6GJQsqaUBKTNV-1">
          <mxGeometry x="-542" y="682" width="253" height="194" as="geometry" />
        </mxCell>
        <mxCell id="ttPGr65DL2RyhWmqJROM-117" value="&lt;b style=&quot;font-size: 14px;&quot;&gt;Required time 30-40min&lt;br style=&quot;font-size: 14px;&quot;&gt;&lt;/b&gt;" style="shape=hexagon;perimeter=hexagonPerimeter2;whiteSpace=wrap;html=1;fixedSize=1;fontSize=14;" vertex="1" parent="WIyWlLk6GJQsqaUBKTNV-1">
          <mxGeometry x="968" y="360" width="224" height="128" as="geometry" />
        </mxCell>
      </root>
    </mxGraphModel>
  </diagram>
</mxfile>
